<?xml version="1.0" standalone="no"?>
<!DOCTYPE svg PUBLIC "-//W3C//DTD SVG 20010904//EN"
 "http://www.w3.org/TR/2001/REC-SVG-20010904/DTD/svg10.dtd">
<svg version="1.0" xmlns="http://www.w3.org/2000/svg"
 width="512.000000pt" height="512.000000pt" viewBox="0 0 512.000000 512.000000"
 preserveAspectRatio="xMidYMid meet">
<metadata>
Created by potrace 1.11, written by Peter Selinger 2001-2013
</metadata>
<g transform="translate(0.000000,512.000000) scale(0.100000,-0.100000)"
fill="#000000" stroke="none">
<path d="M90 5098 c-30 -15 -53 -37 -67 -63 l-23 -40 0 -2435 1 -2435 27 -40
c15 -22 43 -50 61 -62 l34 -23 2404 0 2403 0 55 31 c31 17 72 53 95 81 l40 51
0 2424 c0 2663 5 2452 -60 2507 l-32 26 -2447 0 -2447 0 -44 -22z m1640 -2433
l0 -866 -152 3 -153 3 -3 83 -3 84 -65 -61 c-162 -152 -341 -182 -539 -90 -72
33 -193 157 -232 239 -61 129 -68 166 -68 380 0 162 3 205 19 255 53 173 142
283 281 351 l80 39 130 0 c125 0 132 -1 197 -32 37 -17 89 -52 116 -77 27 -25
52 -46 56 -46 3 0 6 135 6 300 l0 300 165 0 165 0 0 -865z m554 293 c55 -150
101 -275 143 -385 20 -54 55 -156 78 -227 23 -71 45 -124 49 -118 3 5 20 52
36 103 17 52 46 135 65 184 18 50 57 153 85 230 29 77 67 178 84 225 l32 85
173 3 c137 2 172 0 168 -10 -44 -108 -203 -509 -261 -658 -42 -107 -81 -204
-86 -215 -5 -11 -40 -99 -78 -195 l-69 -175 -145 -3 c-108 -2 -148 1 -155 10
-6 7 -83 195 -172 418 -89 223 -166 414 -171 425 -7 15 -132 326 -157 393 -4
9 34 12 169 12 l175 0 37 -102z"/>
<path d="M1013 2815 c-93 -47 -142 -130 -162 -275 -14 -97 -2 -237 27 -329 33
-107 144 -191 250 -191 84 0 192 81 231 173 41 94 52 251 27 379 -25 125 -60
185 -140 236 -31 19 -58 26 -111 29 -61 4 -77 1 -122 -22z"/>
</g>
</svg>
